<svg width="280" height="60" viewBox="0 0 280 60" fill="none" xmlns="http://www.w3.org/2000/svg">
<path d="M36.752 36.128C35.632 36.128 34.6187 35.8827 33.712 35.392C32.816 34.8907 32.112 34.208 31.6 33.344C31.088 32.4693 30.832 31.488 30.832 30.4C30.832 29.312 31.088 28.336 31.6 27.472C32.112 26.5973 32.8213 25.9147 33.728 25.424C34.6347 24.9227 35.648 24.672 36.768 24.672C37.6427 24.672 38.4427 24.8213 39.168 25.12C39.8933 25.408 40.512 25.84 41.024 26.416L39.984 27.424C39.1413 26.5387 38.0907 26.096 36.832 26.096C36 26.096 35.248 26.2827 34.576 26.656C33.904 27.0293 33.376 27.5467 32.992 28.208C32.6187 28.8587 32.432 29.5893 32.432 30.4C32.432 31.2107 32.6187 31.9467 32.992 32.608C33.376 33.2587 33.904 33.7707 34.576 34.144C35.248 34.5173 36 34.704 36.832 34.704C38.08 34.704 39.1307 34.256 39.984 33.36L41.024 34.368C40.512 34.944 39.888 35.3813 39.152 35.68C38.4267 35.9787 37.6267 36.128 36.752 36.128ZM50.8284 27.52V36H49.2924V28.864H44.5084V36H42.9724V27.52H50.8284ZM61.4645 31.808C61.4645 31.9253 61.4538 32.08 61.4325 32.272H54.5525C54.6485 33.0187 54.9738 33.6213 55.5285 34.08C56.0938 34.528 56.7925 34.752 57.6245 34.752C58.6378 34.752 59.4538 34.4107 60.0725 33.728L60.9205 34.72C60.5365 35.168 60.0565 35.5093 59.4805 35.744C58.9152 35.9787 58.2805 36.096 57.5765 36.096C56.6805 36.096 55.8858 35.9147 55.1925 35.552C54.4992 35.1787 53.9605 34.6613 53.5765 34C53.2032 33.3387 53.0165 32.592 53.0165 31.76C53.0165 30.9387 53.1978 30.1973 53.5605 29.536C53.9338 28.8747 54.4405 28.3627 55.0805 28C55.7312 27.6267 56.4618 27.44 57.2725 27.44C58.0832 27.44 58.8032 27.6267 59.4325 28C60.0725 28.3627 60.5685 28.8747 60.9205 29.536C61.2832 30.1973 61.4645 30.9547 61.4645 31.808ZM57.2725 28.736C56.5365 28.736 55.9178 28.96 55.4165 29.408C54.9258 29.856 54.6378 30.4427 54.5525 31.168H59.9925C59.9072 30.4533 59.6138 29.872 59.1125 29.424C58.6218 28.9653 58.0085 28.736 57.2725 28.736ZM72.9034 34.656V38.032H71.4474V36H63.8474V27.52H65.3834V34.656H70.0234V27.52H71.5594V34.656H72.9034ZM87.0471 27.52V36H85.5111V28.864H80.7271V36H79.1911V27.52H87.0471ZM94.5153 27.44C95.3366 27.44 96.0726 27.6213 96.7233 27.984C97.3739 28.3467 97.8806 28.8533 98.2433 29.504C98.6166 30.1547 98.8033 30.9067 98.8033 31.76C98.8033 32.6133 98.6166 33.3707 98.2433 34.032C97.8806 34.6827 97.3739 35.1893 96.7233 35.552C96.0726 35.9147 95.3366 36.096 94.5153 36.096C93.9073 36.096 93.3473 35.9787 92.8353 35.744C92.3339 35.5093 91.9073 35.168 91.5553 34.72V39.104H90.0193V27.52H91.4913V28.864C91.8326 28.3947 92.2646 28.0427 92.7873 27.808C93.3099 27.5627 93.8859 27.44 94.5153 27.44ZM94.3873 34.752C94.9313 34.752 95.4166 34.6293 95.8433 34.384C96.2806 34.128 96.6219 33.776 96.8673 33.328C97.1233 32.8693 97.2513 32.3467 97.2513 31.76C97.2513 31.1733 97.1233 30.656 96.8673 30.208C96.6219 29.7493 96.2806 29.3973 95.8433 29.152C95.4166 28.9067 94.9313 28.784 94.3873 28.784C93.8539 28.784 93.3686 28.912 92.9313 29.168C92.5046 29.4133 92.1633 29.76 91.9073 30.208C91.6619 30.656 91.5393 31.1733 91.5393 31.76C91.5393 32.3467 91.6619 32.8693 91.9073 33.328C92.1526 33.776 92.4939 34.128 92.9313 34.384C93.3686 34.6293 93.8539 34.752 94.3873 34.752ZM108.699 31.808C108.699 31.9253 108.688 32.08 108.667 32.272H101.787C101.883 33.0187 102.208 33.6213 102.763 34.08C103.328 34.528 104.027 34.752 104.859 34.752C105.872 34.752 106.688 34.4107 107.307 33.728L108.155 34.72C107.771 35.168 107.291 35.5093 106.715 35.744C106.15 35.9787 105.515 36.096 104.811 36.096C103.915 36.096 103.12 35.9147 102.427 35.552C101.734 35.1787 101.195 34.6613 100.811 34C100.438 33.3387 100.251 32.592 100.251 31.76C100.251 30.9387 100.432 30.1973 100.795 29.536C101.168 28.8747 101.675 28.3627 102.315 28C102.966 27.6267 103.696 27.44 104.507 27.44C105.318 27.44 106.038 27.6267 106.667 28C107.307 28.3627 107.803 28.8747 108.155 29.536C108.518 30.1973 108.699 30.9547 108.699 31.808ZM104.507 28.736C103.771 28.736 103.152 28.96 102.651 29.408C102.16 29.856 101.872 30.4427 101.787 31.168H107.227C107.142 30.4533 106.848 29.872 106.347 29.424C105.856 28.9653 105.243 28.736 104.507 28.736ZM119.565 34.656V37.968H118.125V36H111.037V37.968H109.581V34.656H110.029C110.573 34.624 110.946 34.24 111.149 33.504C111.352 32.768 111.49 31.728 111.565 30.384L111.693 27.52H118.269V34.656H119.565ZM112.973 30.496C112.93 31.5627 112.84 32.448 112.701 33.152C112.573 33.8453 112.333 34.3467 111.981 34.656H116.733V28.864H113.053L112.973 30.496ZM128.846 27.52V36H127.31V28.864H123.662L123.566 30.752C123.513 31.8933 123.411 32.848 123.262 33.616C123.113 34.3733 122.867 34.9813 122.526 35.44C122.185 35.8987 121.71 36.128 121.102 36.128C120.825 36.128 120.51 36.08 120.158 35.984L120.254 34.688C120.393 34.72 120.521 34.736 120.638 34.736C121.065 34.736 121.385 34.5493 121.598 34.176C121.811 33.8027 121.95 33.36 122.014 32.848C122.078 32.336 122.137 31.6053 122.19 30.656L122.334 27.52H128.846ZM135.448 36.096C134.605 36.096 133.848 35.9093 133.176 35.536C132.504 35.1627 131.976 34.6507 131.592 34C131.219 33.3387 131.032 32.592 131.032 31.76C131.032 30.928 131.219 30.1867 131.592 29.536C131.976 28.8747 132.504 28.3627 133.176 28C133.848 27.6267 134.605 27.44 135.448 27.44C136.291 27.44 137.043 27.6267 137.704 28C138.376 28.3627 138.899 28.8747 139.272 29.536C139.656 30.1867 139.848 30.928 139.848 31.76C139.848 32.592 139.656 33.3387 139.272 34C138.899 34.6507 138.376 35.1627 137.704 35.536C137.043 35.9093 136.291 36.096 135.448 36.096ZM135.448 34.752C135.992 34.752 136.477 34.6293 136.904 34.384C137.341 34.128 137.683 33.776 137.928 33.328C138.173 32.8693 138.296 32.3467 138.296 31.76C138.296 31.1733 138.173 30.656 137.928 30.208C137.683 29.7493 137.341 29.3973 136.904 29.152C136.477 28.9067 135.992 28.784 135.448 28.784C134.904 28.784 134.413 28.9067 133.976 29.152C133.549 29.3973 133.208 29.7493 132.952 30.208C132.707 30.656 132.584 31.1733 132.584 31.76C132.584 32.3467 132.707 32.8693 132.952 33.328C133.208 33.776 133.549 34.128 133.976 34.384C134.413 34.6293 134.904 34.752 135.448 34.752ZM149.497 32.416H147.849V36H146.313V32.416H144.665L142.329 36H140.505L143.417 31.616L140.729 27.52H142.361L144.649 31.104H146.313V27.52H147.849V31.104H149.513L151.801 27.52H153.449L150.761 31.632L153.673 36H151.849L149.497 32.416ZM162.746 31.808C162.746 31.9253 162.735 32.08 162.714 32.272H155.834C155.93 33.0187 156.255 33.6213 156.81 34.08C157.375 34.528 158.074 34.752 158.906 34.752C159.919 34.752 160.735 34.4107 161.354 33.728L162.202 34.72C161.818 35.168 161.338 35.5093 160.762 35.744C160.196 35.9787 159.562 36.096 158.858 36.096C157.962 36.096 157.167 35.9147 156.474 35.552C155.78 35.1787 155.242 34.6613 154.858 34C154.484 33.3387 154.298 32.592 154.298 31.76C154.298 30.9387 154.479 30.1973 154.842 29.536C155.215 28.8747 155.722 28.3627 156.362 28C157.012 27.6267 157.743 27.44 158.554 27.44C159.364 27.44 160.084 27.6267 160.714 28C161.354 28.3627 161.85 28.8747 162.202 29.536C162.564 30.1973 162.746 30.9547 162.746 31.808ZM158.554 28.736C157.818 28.736 157.199 28.96 156.698 29.408C156.207 29.856 155.919 30.4427 155.834 31.168H161.274C161.188 30.4533 160.895 29.872 160.394 29.424C159.903 28.9653 159.29 28.736 158.554 28.736ZM165.129 27.52H166.665V31.12H171.497V27.52H173.033V36H171.497V32.448H166.665V36H165.129V27.52ZM176.019 27.52H177.555V33.696L182.755 27.52H184.147V36H182.611V29.824L177.427 36H176.019V27.52ZM194.793 31.808C194.793 31.9253 194.782 32.08 194.761 32.272H187.881C187.977 33.0187 188.302 33.6213 188.857 34.08C189.422 34.528 190.121 34.752 190.953 34.752C191.966 34.752 192.782 34.4107 193.401 33.728L194.249 34.72C193.865 35.168 193.385 35.5093 192.809 35.744C192.243 35.9787 191.609 36.096 190.905 36.096C190.009 36.096 189.214 35.9147 188.521 35.552C187.827 35.1787 187.289 34.6613 186.905 34C186.531 33.3387 186.345 32.592 186.345 31.76C186.345 30.9387 186.526 30.1973 186.889 29.536C187.262 28.8747 187.769 28.3627 188.409 28C189.059 27.6267 189.79 27.44 190.601 27.44C191.411 27.44 192.131 27.6267 192.761 28C193.401 28.3627 193.897 28.8747 194.249 29.536C194.611 30.1973 194.793 30.9547 194.793 31.808ZM190.601 28.736C189.865 28.736 189.246 28.96 188.745 29.408C188.254 29.856 187.966 30.4427 187.881 31.168H193.321C193.235 30.4533 192.942 29.872 192.441 29.424C191.95 28.9653 191.337 28.736 190.601 28.736Z" fill="black"/>
<g clip-path="url(#clip0_9_30)">
<path d="M247.334 29.5318L241.993 24.1917C241.87 24.0681 241.705 24 241.529 24C241.353 24 241.189 24.0681 241.065 24.1917L240.672 24.5849C240.416 24.8411 240.416 25.2575 240.672 25.5133L245.156 29.9975L240.667 34.4867C240.543 34.6104 240.475 34.7751 240.475 34.9508C240.475 35.1267 240.543 35.2915 240.667 35.4152L241.06 35.8083C241.184 35.9319 241.348 36 241.524 36C241.7 36 241.865 35.9319 241.988 35.8083L247.334 30.4634C247.457 30.3394 247.525 30.1738 247.525 29.9978C247.525 29.8211 247.457 29.6557 247.334 29.5318Z" fill="black"/>
</g>
<rect x="0.5" y="0.5" width="279" height="59" stroke="black"/>
<defs>
<clipPath id="clip0_9_30">
<rect width="12" height="12" fill="white" transform="translate(238 24)"/>
</clipPath>
</defs>
</svg>
