<svg width="185" height="55" viewBox="0 0 185 55" fill="none" xmlns="http://www.w3.org/2000/svg">
<g clip-path="url(#clip0_1_2)">
<path d="M41.392 22.3V33.5H39.824V23.692H33.328V33.5H31.744V22.3H41.392ZM48.2606 33.596C47.418 33.596 46.6606 33.4093 45.9886 33.036C45.3166 32.6627 44.7886 32.1507 44.4046 31.5C44.0313 30.8387 43.8446 30.092 43.8446 29.26C43.8446 28.428 44.0313 27.6867 44.4046 27.036C44.7886 26.3747 45.3166 25.8627 45.9886 25.5C46.6606 25.1267 47.418 24.94 48.2606 24.94C49.1033 24.94 49.8553 25.1267 50.5166 25.5C51.1886 25.8627 51.7113 26.3747 52.0846 27.036C52.4686 27.6867 52.6606 28.428 52.6606 29.26C52.6606 30.092 52.4686 30.8387 52.0846 31.5C51.7113 32.1507 51.1886 32.6627 50.5166 33.036C49.8553 33.4093 49.1033 33.596 48.2606 33.596ZM48.2606 32.252C48.8046 32.252 49.29 32.1293 49.7166 31.884C50.154 31.628 50.4953 31.276 50.7406 30.828C50.986 30.3693 51.1086 29.8467 51.1086 29.26C51.1086 28.6733 50.986 28.156 50.7406 27.708C50.4953 27.2493 50.154 26.8973 49.7166 26.652C49.29 26.4067 48.8046 26.284 48.2606 26.284C47.7166 26.284 47.226 26.4067 46.7886 26.652C46.362 26.8973 46.0206 27.2493 45.7646 27.708C45.5193 28.156 45.3966 28.6733 45.3966 29.26C45.3966 29.8467 45.5193 30.3693 45.7646 30.828C46.0206 31.276 46.362 31.628 46.7886 31.884C47.226 32.1293 47.7166 32.252 48.2606 32.252ZM63.4401 32.156V35.468H62.0001V33.5H54.9121V35.468H53.4561V32.156H53.9041C54.4481 32.124 54.8215 31.74 55.0241 31.004C55.2268 30.268 55.3655 29.228 55.4401 27.884L55.5681 25.02H62.1441V32.156H63.4401ZM56.8481 27.996C56.8055 29.0627 56.7148 29.948 56.5761 30.652C56.4481 31.3453 56.2081 31.8467 55.8561 32.156H60.6081V26.364H56.9281L56.8481 27.996ZM69.9371 24.94C70.7585 24.94 71.4945 25.1213 72.1451 25.484C72.7958 25.8467 73.3025 26.3533 73.6651 27.004C74.0385 27.6547 74.2251 28.4067 74.2251 29.26C74.2251 30.1133 74.0385 30.8707 73.6651 31.532C73.3025 32.1827 72.7958 32.6893 72.1451 33.052C71.4945 33.4147 70.7585 33.596 69.9371 33.596C69.3291 33.596 68.7691 33.4787 68.2571 33.244C67.7558 33.0093 67.3291 32.668 66.9771 32.22V36.604H65.4411V25.02H66.9131V26.364C67.2545 25.8947 67.6865 25.5427 68.2091 25.308C68.7318 25.0627 69.3078 24.94 69.9371 24.94ZM69.8091 32.252C70.3531 32.252 70.8385 32.1293 71.2651 31.884C71.7025 31.628 72.0438 31.276 72.2891 30.828C72.5451 30.3693 72.6731 29.8467 72.6731 29.26C72.6731 28.6733 72.5451 28.156 72.2891 27.708C72.0438 27.2493 71.7025 26.8973 71.2651 26.652C70.8385 26.4067 70.3531 26.284 69.8091 26.284C69.2758 26.284 68.7905 26.412 68.3531 26.668C67.9265 26.9133 67.5851 27.26 67.3291 27.708C67.0838 28.156 66.9611 28.6733 66.9611 29.26C66.9611 29.8467 67.0838 30.3693 67.3291 30.828C67.5745 31.276 67.9158 31.628 68.3531 31.884C68.7905 32.1293 69.2758 32.252 69.8091 32.252ZM80.0888 33.596C79.2461 33.596 78.4888 33.4093 77.8168 33.036C77.1448 32.6627 76.6168 32.1507 76.2328 31.5C75.8594 30.8387 75.6728 30.092 75.6728 29.26C75.6728 28.428 75.8594 27.6867 76.2328 27.036C76.6168 26.3747 77.1448 25.8627 77.8168 25.5C78.4888 25.1267 79.2461 24.94 80.0888 24.94C80.9314 24.94 81.6834 25.1267 82.3448 25.5C83.0168 25.8627 83.5394 26.3747 83.9128 27.036C84.2968 27.6867 84.4888 28.428 84.4888 29.26C84.4888 30.092 84.2968 30.8387 83.9128 31.5C83.5394 32.1507 83.0168 32.6627 82.3448 33.036C81.6834 33.4093 80.9314 33.596 80.0888 33.596ZM80.0888 32.252C80.6328 32.252 81.1181 32.1293 81.5448 31.884C81.9821 31.628 82.3234 31.276 82.5688 30.828C82.8141 30.3693 82.9368 29.8467 82.9368 29.26C82.9368 28.6733 82.8141 28.156 82.5688 27.708C82.3234 27.2493 81.9821 26.8973 81.5448 26.652C81.1181 26.4067 80.6328 26.284 80.0888 26.284C79.5448 26.284 79.0541 26.4067 78.6168 26.652C78.1901 26.8973 77.8488 27.2493 77.5928 27.708C77.3474 28.156 77.2248 28.6733 77.2248 29.26C77.2248 29.8467 77.3474 30.3693 77.5928 30.828C77.8488 31.276 78.1901 31.628 78.6168 31.884C79.0541 32.1293 79.5448 32.252 80.0888 32.252ZM91.0268 25.308C91.8161 25.308 92.5201 25.484 93.1388 25.836C93.7574 26.188 94.2374 26.6787 94.5788 27.308C94.9308 27.9267 95.1068 28.636 95.1068 29.436C95.1068 30.2573 94.9201 30.988 94.5468 31.628C94.1841 32.2573 93.6668 32.748 92.9948 33.1C92.3334 33.452 91.5761 33.628 90.7228 33.628C89.2828 33.628 88.1681 33.1373 87.3788 32.156C86.6001 31.164 86.2108 29.772 86.2108 27.98C86.2108 26.2413 86.5681 24.8813 87.2828 23.9C87.9974 22.908 89.0908 22.252 90.5628 21.932L94.4348 21.068L94.6588 22.476L91.0908 23.244C89.9814 23.4893 89.1548 23.9053 88.6108 24.492C88.0668 25.0787 87.7574 25.9213 87.6828 27.02C88.0454 26.476 88.5148 26.0547 89.0908 25.756C89.6668 25.4573 90.3121 25.308 91.0268 25.308ZM90.7548 32.348C91.2988 32.348 91.7788 32.2253 92.1948 31.98C92.6214 31.7347 92.9521 31.3987 93.1868 30.972C93.4214 30.5347 93.5388 30.0387 93.5388 29.484C93.5388 28.6413 93.2828 27.964 92.7708 27.452C92.2588 26.94 91.5868 26.684 90.7548 26.684C89.9228 26.684 89.2454 26.94 88.7228 27.452C88.2108 27.964 87.9548 28.6413 87.9548 29.484C87.9548 30.0387 88.0721 30.5347 88.3068 30.972C88.5521 31.3987 88.8881 31.7347 89.3148 31.98C89.7414 32.2253 90.2214 32.348 90.7548 32.348ZM97.3005 25.02H98.8365V28.62H103.669V25.02H105.205V33.5H103.669V29.948H98.8365V33.5H97.3005V25.02ZM115.855 29.308C115.855 29.4253 115.844 29.58 115.823 29.772H108.943C109.039 30.5187 109.364 31.1213 109.919 31.58C110.484 32.028 111.183 32.252 112.015 32.252C113.028 32.252 113.844 31.9107 114.463 31.228L115.311 32.22C114.927 32.668 114.447 33.0093 113.871 33.244C113.306 33.4787 112.671 33.596 111.967 33.596C111.071 33.596 110.276 33.4147 109.583 33.052C108.89 32.6787 108.351 32.1613 107.967 31.5C107.594 30.8387 107.407 30.092 107.407 29.26C107.407 28.4387 107.588 27.6973 107.951 27.036C108.324 26.3747 108.831 25.8627 109.471 25.5C110.122 25.1267 110.852 24.94 111.663 24.94C112.474 24.94 113.194 25.1267 113.823 25.5C114.463 25.8627 114.959 26.3747 115.311 27.036C115.674 27.6973 115.855 28.4547 115.855 29.308ZM111.663 26.236C110.927 26.236 110.308 26.46 109.807 26.908C109.316 27.356 109.028 27.9427 108.943 28.668H114.383C114.298 27.9533 114.004 27.372 113.503 26.924C113.012 26.4653 112.399 26.236 111.663 26.236ZM125.902 29.308C125.902 29.4253 125.891 29.58 125.87 29.772H118.99C119.086 30.5187 119.411 31.1213 119.966 31.58C120.531 32.028 121.23 32.252 122.062 32.252C123.075 32.252 123.891 31.9107 124.51 31.228L125.358 32.22C124.974 32.668 124.494 33.0093 123.918 33.244C123.353 33.4787 122.718 33.596 122.014 33.596C121.118 33.596 120.323 33.4147 119.63 33.052C118.937 32.6787 118.398 32.1613 118.014 31.5C117.641 30.8387 117.454 30.092 117.454 29.26C117.454 28.4387 117.635 27.6973 117.998 27.036C118.371 26.3747 118.878 25.8627 119.518 25.5C120.169 25.1267 120.899 24.94 121.71 24.94C122.521 24.94 123.241 25.1267 123.87 25.5C124.51 25.8627 125.006 26.3747 125.358 27.036C125.721 27.6973 125.902 28.4547 125.902 29.308ZM121.71 26.236C120.974 26.236 120.355 26.46 119.854 26.908C119.363 27.356 119.075 27.9427 118.99 28.668H124.43C124.345 27.9533 124.051 27.372 123.55 26.924C123.059 26.4653 122.446 26.236 121.71 26.236Z" fill="white"/>
<path d="M152.334 27.0318L146.993 21.6917C146.87 21.5681 146.705 21.5 146.529 21.5C146.353 21.5 146.188 21.5681 146.065 21.6917L145.672 22.0849C145.416 22.3411 145.416 22.7575 145.672 23.0133L150.156 27.4975L145.667 31.9867C145.543 32.1104 145.475 32.2751 145.475 32.4508C145.475 32.6267 145.543 32.7915 145.667 32.9152L146.06 33.3083C146.184 33.4319 146.348 33.5 146.524 33.5C146.7 33.5 146.865 33.4319 146.988 33.3083L152.334 27.9634C152.457 27.8394 152.525 27.6738 152.525 27.4978C152.525 27.3211 152.457 27.1557 152.334 27.0318Z" fill="white"/>
<path d="M184.5 0.5H0.5V54.5H184.5V0.5Z" stroke="white"/>
</g>
<defs>
<clipPath id="clip0_1_2">
<rect width="185" height="55" fill="white"/>
</clipPath>
</defs>
</svg>
